# 3ds Max Wavefront OBJ Exporter v0.97b - (c)2007 guruware
# File Created: 15.02.2018 08:55:12

#
# object Box001
#

v  0.5000 -0.5000 0.6000
v  -0.5000 -0.5000 1.6000
v  -0.5000 -0.5000 0.6000
v  0.5000 0.5000 0.6000
v  -0.5000 0.5000 1.6000
v  0.5000 0.5000 1.6000
v  -0.5000 0.5000 0.6000
v  0.5000 -0.5000 1.6000
v  0.2273 0.2273 0.6000
v  -0.2273 0.2273 0.6000
v  -0.2273 -0.2273 0.6000
v  -0.5000 0.5000 0.0547
v  -0.5000 -0.5000 0.0547
v  0.2273 -0.2273 0.6000
v  0.5000 -0.5000 0.0547
v  0.5000 0.5000 0.0547
# 16 vertices

vn 0.0000 -1.0000 -0.0000
vn 0.0000 1.0000 -0.0000
vn -1.0000 0.0000 -0.0000
vn -0.0000 0.0000 1.0000
vn 1.0000 0.0000 0.0000
vn 0.0000 0.0000 -1.0000
vn -0.8944 0.0000 0.4472
vn -0.0000 -0.8944 0.4472
vn 0.8944 0.0000 0.4472
vn 0.8944 -0.0000 0.4472
vn 0.0000 -0.0000 -1.0000
vn -0.0000 0.8944 0.4472
# 12 vertex normals

vt 1.0000 0.0000 0.0000
vt 0.0000 1.0000 0.0000
vt 0.0000 0.0000 0.0000
vt 1.0000 1.0000 0.0000
vt 0.2727 0.7273 0.0000
vt 0.7273 0.7273 0.0000
vt 0.2727 0.5453 0.0000
vt 1.0000 -0.0000 0.0000
vt 0.0000 -0.0000 0.0000
vt 0.7273 0.5453 0.0000
vt 0.2727 0.2727 0.0000
vt 0.7273 0.2727 0.0000
# 12 texture coords

o Box001
g Box001
f 1/1/1 2/2/1 3/3/1 
f 4/3/2 5/4/2 6/2/2 
f 3/3/3 5/4/3 7/2/3 
f 2/3/4 6/4/4 5/2/4 
f 8/3/5 4/4/5 6/2/5 
f 7/4/6 9/5/6 10/6/6 
f 11/7/7 12/8/7 13/3/7 
f 14/7/8 13/1/8 15/9/8 
f 14/10/9 16/9/9 9/7/10 
f 15/2/11 12/1/11 16/3/11 
f 9/10/12 12/9/12 10/7/12 
f 2/2/1 1/1/1 8/4/1 
f 5/4/2 4/3/2 7/1/2 
f 5/4/3 3/3/3 2/1/3 
f 6/4/4 2/3/4 8/1/4 
f 4/4/5 8/3/5 1/1/5 
f 1/3/6 9/5/6 4/2/6 
f 1/3/6 14/11/6 9/5/6 
f 3/1/6 14/11/6 1/3/6 
f 3/1/6 11/12/6 14/11/6 
f 7/4/6 11/12/6 3/1/6 
f 7/4/6 10/6/6 11/12/6 
f 9/5/6 7/4/6 4/2/6 
f 12/8/7 11/7/7 10/10/7 
f 13/1/8 14/7/8 11/10/8 
f 16/9/9 14/10/9 15/8/9 
f 12/1/11 15/2/11 13/4/11 
f 12/9/12 9/10/12 16/8/12 
# 28 faces

